<?xml version="1.0" encoding="UTF-8"?>
<svg viewBox="0 0 200 200" xmlns="http://www.w3.org/2000/svg">
<defs>
<filter id="filter3783">
<feGaussianBlur stdDeviation=".96"/>
</filter>
<linearGradient gradientUnits="userSpaceOnUse" id="linearGradient3790" x1="40" x2="160" y1="40" y2="160">
<stop offset="0" stop-color="#fff"/>
<stop offset="1" stop-color="#666"/>
</linearGradient>
<linearGradient gradientUnits="userSpaceOnUse" id="linearGradient3776" x1="40" x2="160" y1="164.5" y2="40">
<stop offset="0" stop-color="#bbb"/>
<stop offset="1" stop-color="#ddd"/>
</linearGradient>
</defs>
<path d="m88,2v36c0,30-12,36-22,36h-20l-40,38h36c30,0 36,12 36,22v20l38,40v-36c0-30 12-36 22-36h20l40-38h-36c-30,0-36-12-36-22v-20l-38-40zm14,84c6.63,0 12,5.373 12,12s-5.37,12-12,12-12-5.37-12-12 5.373-12 12-12z" fill="#333" filter="url(#filter3783)"/>
<path d="m86,4v36c0,30-12,36-22,36h-20l-40,38h36c30,0 36,12 36,22v20l38,40v-36c0-30 12-36 22-36h20l40-38h-36c-30,0-36-12-36-22v-20zm14,84c6.63,0 12,5.373 12,12s-5.37,12-12,12-12-5.37-12-12 5.373-12 12-12z" fill="url(#linearGradient3790)" stroke="url(#linearGradient3776)" stroke-width=".5"/>
<path d="m44,76h20l-40,38h-20z" fill="#666" opacity=".3"/>
<path d="m124,44v20l-38-40v-20z" opacity=".3"/>
<path d="m114,176v20l-38-40v-20z" fill="#666" opacity=".3"/>
<path d="m176,86h20l-40,38h-20z" fill="#666" opacity=".3"/>
</svg>
